<svg xmlns="http://www.w3.org/2000/svg" xmlns:xlink="http://www.w3.org/1999/xlink" width="50" zoomAndPan="magnify" viewBox="0 0 37.5 37.499999" height="50" preserveAspectRatio="xMidYMid meet" version="1.0"><defs><clipPath id="5f37ec9b21"><path d="M 4.0625 8.160156 L 32.925781 8.160156 L 32.925781 28.882812 L 4.0625 28.882812 Z M 4.0625 8.160156 " clip-rule="nonzero"/></clipPath></defs><g clip-path="url(#5f37ec9b21)"><path fill="#ee3124" d="M 4.070312 15.851562 L 12.226562 15.851562 L 12.226562 21.230469 L 4.070312 21.230469 Z M 14.484375 8.203125 L 22.496094 8.203125 L 22.496094 13.582031 L 14.484375 13.582031 Z M 14.484375 23.46875 L 22.496094 23.46875 L 22.496094 28.847656 L 14.484375 28.847656 Z M 24.722656 15.851562 L 32.910156 15.851562 L 32.910156 21.230469 L 24.722656 21.230469 Z M 12.226562 8.203125 L 12.226562 13.609375 L 4.070312 13.609375 L 4.070312 13 C 4.390625 10.558594 5.71875 8.636719 7.425781 8.203125 Z M 12.257812 23.46875 L 12.257812 28.847656 L 7.226562 28.847656 C 5.605469 28.324219 4.363281 26.464844 4.074219 24.136719 L 4.074219 23.46875 Z M 32.910156 13.550781 L 24.722656 13.550781 L 24.722656 8.171875 L 29.554688 8.171875 C 31.261719 8.636719 32.589844 10.558594 32.910156 12.972656 Z M 24.722656 28.875 L 24.722656 23.5 L 32.910156 23.5 L 32.910156 24.167969 C 32.589844 26.492188 31.347656 28.324219 29.757812 28.875 Z M 24.722656 28.875 " fill-opacity="1" fill-rule="evenodd"/></g></svg>