<svg xmlns="http://www.w3.org/2000/svg" xmlns:xlink="http://www.w3.org/1999/xlink" width="50" zoomAndPan="magnify" viewBox="0 0 37.5 37.499999" height="50" preserveAspectRatio="xMidYMid meet" version="1.0"><defs><clipPath id="67b84f86e8"><path d="M 2.789062 15 L 34.613281 15 L 34.613281 23.753906 L 2.789062 23.753906 Z M 2.789062 15 " clip-rule="nonzero"/></clipPath></defs><g clip-path="url(#67b84f86e8)"><path fill="#1414a0" d="M 2.789062 15.277344 L 5.347656 15.277344 C 5.933594 15.277344 6.625 15.835938 6.933594 16.140625 L 11.425781 21.234375 L 11.425781 15.277344 L 12.953125 15.277344 L 12.953125 23.402344 L 10.28125 23.402344 C 9.804688 23.386719 9.335938 23.289062 8.792969 22.742188 L 4.308594 17.640625 L 4.308594 23.402344 L 2.789062 23.402344 Z M 34.613281 23.460938 C 32.785156 23.714844 30.933594 23.738281 29.082031 23.582031 C 27.996094 23.484375 26.933594 23.253906 25.960938 22.734375 C 24.730469 22.082031 24.339844 20.621094 24.355469 19.292969 C 24.367188 18.070312 24.726562 16.761719 25.792969 16.050781 C 26.496094 15.578125 27.242188 15.425781 28.039062 15.277344 C 30.210938 14.886719 32.386719 14.976562 34.503906 15.210938 L 34.503906 16.371094 C 32.007812 15.875 29.367188 16 28.472656 17.171875 C 27.910156 17.902344 27.832031 18.628906 27.832031 19.238281 C 27.832031 20.339844 28.199219 22.011719 30.390625 22.335938 C 31.820312 22.550781 33.234375 22.386719 34.613281 22.132812 Z M 18.96875 22.195312 C 19.183594 22.199219 22.628906 22.214844 23.808594 22.195312 L 23.808594 23.410156 C 21.429688 23.503906 19.140625 23.542969 16.734375 23.441406 C 14.695312 23.355469 14.34375 22.308594 14.304688 21.300781 L 14.304688 15.277344 L 23.695312 15.277344 L 23.695312 16.433594 L 17.621094 16.433594 L 17.621094 18.503906 L 23.15625 18.503906 L 23.15625 19.632812 L 17.621094 19.632812 C 17.621094 20.242188 17.640625 20.9375 17.644531 21.0625 C 17.675781 21.847656 18.035156 22.140625 18.96875 22.195312 " fill-opacity="1" fill-rule="nonzero"/></g></svg>